<mxfile host="drawio-plugin" modified="2022-10-05T15:29:37.863Z" agent="5.0 (Macintosh; Intel Mac OS X 10_15_7) AppleWebKit/537.36 (KHTML, like Gecko) Chrome/98.0.4758.102 Safari/537.36" etag="gDWrSyVKAatJWgTlbHo3" version="15.5.4" type="embed"><diagram id="yPxyJZ8AM_hMuL3Unpa9" name="gitflow"><mxGraphModel dx="453" dy="351" grid="1" gridSize="10" guides="1" tooltips="1" connect="1" arrows="1" fold="1" page="1" pageScale="1" pageWidth="850" pageHeight="1100" math="0" shadow="0"><root><mxCell id="0"/><mxCell id="1" parent="0"/><mxCell id="VGW8Ie6xMGFFhk2Ik6Qo-178" value="metadata" style="ellipse;whiteSpace=wrap;html=1;aspect=fixed;fillColor=#dae8fc;strokeColor=#6c8ebf;fontStyle=0;labelPosition=center;verticalLabelPosition=top;align=center;verticalAlign=bottom;fontColor=#0066CC;" parent="1" vertex="1"><mxGeometry x="111" y="230" width="20" height="20" as="geometry"/></mxCell><mxCell id="VGW8Ie6xMGFFhk2Ik6Qo-181" value="metadata" style="ellipse;whiteSpace=wrap;html=1;aspect=fixed;fillColor=#dae8fc;strokeColor=#6c8ebf;fontStyle=0;labelPosition=center;verticalLabelPosition=top;align=center;verticalAlign=bottom;fontColor=#0066CC;" parent="1" vertex="1"><mxGeometry x="189.97" y="230" width="20" height="20" as="geometry"/></mxCell><mxCell id="VGW8Ie6xMGFFhk2Ik6Qo-182" value="metadata" style="ellipse;whiteSpace=wrap;html=1;aspect=fixed;fillColor=#dae8fc;strokeColor=#6c8ebf;fontStyle=0;labelPosition=center;verticalLabelPosition=top;align=center;verticalAlign=bottom;fontColor=#0066CC;" parent="1" vertex="1"><mxGeometry x="190.98" y="310" width="20" height="20" as="geometry"/></mxCell><mxCell id="VGW8Ie6xMGFFhk2Ik6Qo-183" value="" style="endArrow=none;dashed=1;html=1;fillColor=#dae8fc;strokeColor=#6c8ebf;exitX=1;exitY=0.5;exitDx=0;exitDy=0;entryX=0;entryY=0.5;entryDx=0;entryDy=0;" parent="1" source="VGW8Ie6xMGFFhk2Ik6Qo-178" target="VGW8Ie6xMGFFhk2Ik6Qo-181" edge="1"><mxGeometry width="50" height="50" relative="1" as="geometry"><mxPoint x="151" y="260" as="sourcePoint"/><mxPoint x="171" y="260" as="targetPoint"/><Array as="points"/></mxGeometry></mxCell><mxCell id="VGW8Ie6xMGFFhk2Ik6Qo-186" style="edgeStyle=orthogonalEdgeStyle;rounded=1;orthogonalLoop=1;jettySize=auto;html=1;dashed=1;endArrow=none;endFill=0;fontSize=10;fontColor=#FFB570;fillColor=#dae8fc;strokeColor=#6c8ebf;entryX=0;entryY=0.5;entryDx=0;entryDy=0;" parent="1" target="VGW8Ie6xMGFFhk2Ik6Qo-182" edge="1"><mxGeometry relative="1" as="geometry"><Array as="points"><mxPoint x="141" y="240"/><mxPoint x="141" y="280"/></Array><mxPoint x="131" y="240" as="sourcePoint"/><mxPoint x="281.0000000000191" y="150" as="targetPoint"/></mxGeometry></mxCell><mxCell id="VGW8Ie6xMGFFhk2Ik6Qo-187" value="metadata" style="ellipse;whiteSpace=wrap;html=1;aspect=fixed;fillColor=#dae8fc;strokeColor=#6c8ebf;fontStyle=0;labelPosition=center;verticalLabelPosition=top;align=center;verticalAlign=bottom;fontColor=#0066CC;" parent="1" vertex="1"><mxGeometry x="111" y="110" width="20" height="20" as="geometry"/></mxCell><mxCell id="VGW8Ie6xMGFFhk2Ik6Qo-188" value="metadata" style="ellipse;whiteSpace=wrap;html=1;aspect=fixed;fillColor=#dae8fc;strokeColor=#6c8ebf;fontStyle=0;labelPosition=center;verticalLabelPosition=top;align=center;verticalAlign=bottom;fontColor=#0066CC;" parent="1" vertex="1"><mxGeometry x="189.97" y="110" width="20" height="20" as="geometry"/></mxCell><mxCell id="VGW8Ie6xMGFFhk2Ik6Qo-189" value="" style="endArrow=none;dashed=1;html=1;fillColor=#dae8fc;strokeColor=#6c8ebf;exitX=1;exitY=0.5;exitDx=0;exitDy=0;entryX=0;entryY=0.5;entryDx=0;entryDy=0;" parent="1" source="VGW8Ie6xMGFFhk2Ik6Qo-187" target="VGW8Ie6xMGFFhk2Ik6Qo-188" edge="1"><mxGeometry width="50" height="50" relative="1" as="geometry"><mxPoint x="60" y="170" as="sourcePoint"/><mxPoint x="120" y="170" as="targetPoint"/><Array as="points"/></mxGeometry></mxCell><mxCell id="VGW8Ie6xMGFFhk2Ik6Qo-193" value="metadata" style="ellipse;whiteSpace=wrap;html=1;aspect=fixed;fillColor=#dae8fc;strokeColor=#6c8ebf;fontStyle=0;labelPosition=center;verticalLabelPosition=top;align=center;verticalAlign=bottom;fontColor=#0066CC;" parent="1" vertex="1"><mxGeometry x="110" y="70" width="20" height="20" as="geometry"/></mxCell><mxCell id="VGW8Ie6xMGFFhk2Ik6Qo-194" value="metadata" style="ellipse;whiteSpace=wrap;html=1;aspect=fixed;fillColor=#dae8fc;strokeColor=#6c8ebf;fontStyle=0;labelPosition=center;verticalLabelPosition=top;align=center;verticalAlign=bottom;fontColor=#0066CC;" parent="1" vertex="1"><mxGeometry x="30" y="110" width="20" height="20" as="geometry"/></mxCell><mxCell id="VGW8Ie6xMGFFhk2Ik6Qo-195" value="" style="endArrow=none;dashed=1;html=1;fillColor=#dae8fc;strokeColor=#6c8ebf;exitX=0;exitY=0.5;exitDx=0;exitDy=0;entryX=1;entryY=0.5;entryDx=0;entryDy=0;" parent="1" source="VGW8Ie6xMGFFhk2Ik6Qo-187" target="VGW8Ie6xMGFFhk2Ik6Qo-194" edge="1"><mxGeometry width="50" height="50" relative="1" as="geometry"><mxPoint x="141" y="130" as="sourcePoint"/><mxPoint x="200.97000000001276" y="130" as="targetPoint"/><Array as="points"/></mxGeometry></mxCell><mxCell id="VGW8Ie6xMGFFhk2Ik6Qo-196" style="edgeStyle=orthogonalEdgeStyle;rounded=1;orthogonalLoop=1;jettySize=auto;html=1;dashed=1;endArrow=none;endFill=0;fontSize=10;fontColor=#FFB570;fillColor=#dae8fc;strokeColor=#6c8ebf;entryX=0;entryY=0.5;entryDx=0;entryDy=0;exitX=1;exitY=0.5;exitDx=0;exitDy=0;" parent="1" source="VGW8Ie6xMGFFhk2Ik6Qo-194" target="VGW8Ie6xMGFFhk2Ik6Qo-193" edge="1"><mxGeometry relative="1" as="geometry"><Array as="points"><mxPoint x="60" y="120"/><mxPoint x="60" y="80"/></Array><mxPoint x="140" y="170" as="sourcePoint"/><mxPoint x="200.97000000001276" y="210" as="targetPoint"/></mxGeometry></mxCell><mxCell id="VGW8Ie6xMGFFhk2Ik6Qo-197" value="folder" style="ellipse;whiteSpace=wrap;html=1;aspect=fixed;fillColor=#f8cecc;strokeColor=#b85450;fontStyle=0;labelPosition=center;verticalLabelPosition=top;align=center;verticalAlign=bottom;fontColor=#FF9999;" parent="1" vertex="1"><mxGeometry x="269.97" y="110" width="20" height="20" as="geometry"/></mxCell><mxCell id="VGW8Ie6xMGFFhk2Ik6Qo-199" value="" style="endArrow=none;dashed=1;html=1;fillColor=#f8cecc;strokeColor=#b85450;entryX=1;entryY=0.5;entryDx=0;entryDy=0;endFill=0;exitX=0;exitY=0.5;exitDx=0;exitDy=0;" parent="1" source="VGW8Ie6xMGFFhk2Ik6Qo-197" target="VGW8Ie6xMGFFhk2Ik6Qo-188" edge="1"><mxGeometry width="50" height="50" relative="1" as="geometry"><mxPoint x="704.0000000000259" y="-250" as="sourcePoint"/><mxPoint x="730" y="-280" as="targetPoint"/><Array as="points"><mxPoint x="240" y="120"/></Array></mxGeometry></mxCell><mxCell id="VGW8Ie6xMGFFhk2Ik6Qo-200" value="folder" style="ellipse;whiteSpace=wrap;html=1;aspect=fixed;fillColor=#f8cecc;strokeColor=#b85450;fontStyle=0;labelPosition=center;verticalLabelPosition=top;align=center;verticalAlign=bottom;fontColor=#FF9999;" parent="1" vertex="1"><mxGeometry x="269.97" y="70" width="20" height="20" as="geometry"/></mxCell><mxCell id="VGW8Ie6xMGFFhk2Ik6Qo-202" value="" style="endArrow=none;dashed=1;html=1;fillColor=#f8cecc;strokeColor=#b85450;entryX=1;entryY=0.5;entryDx=0;entryDy=0;endFill=0;exitX=0;exitY=0.5;exitDx=0;exitDy=0;" parent="1" source="VGW8Ie6xMGFFhk2Ik6Qo-200" target="VGW8Ie6xMGFFhk2Ik6Qo-193" edge="1"><mxGeometry width="50" height="50" relative="1" as="geometry"><mxPoint x="270" y="130" as="sourcePoint"/><mxPoint x="220.96999999998707" y="130" as="targetPoint"/><Array as="points"/></mxGeometry></mxCell><mxCell id="VGW8Ie6xMGFFhk2Ik6Qo-205" value="root" style="ellipse;whiteSpace=wrap;html=1;aspect=fixed;fillColor=#e1d5e7;strokeColor=#9673a6;fontStyle=0;labelPosition=center;verticalLabelPosition=top;align=center;verticalAlign=bottom;fontColor=#A680B8;" parent="1" vertex="1"><mxGeometry x="270.97" y="230" width="20" height="20" as="geometry"/></mxCell><mxCell id="VGW8Ie6xMGFFhk2Ik6Qo-206" value="root" style="ellipse;whiteSpace=wrap;html=1;aspect=fixed;fillColor=#e1d5e7;strokeColor=#9673a6;fontStyle=0;labelPosition=center;verticalLabelPosition=top;align=center;verticalAlign=bottom;fontColor=#A680B8;" parent="1" vertex="1"><mxGeometry x="270.98" y="310" width="20" height="20" as="geometry"/></mxCell><mxCell id="VGW8Ie6xMGFFhk2Ik6Qo-207" style="edgeStyle=orthogonalEdgeStyle;rounded=1;orthogonalLoop=1;jettySize=auto;html=1;dashed=1;endArrow=none;endFill=0;fontSize=12;fontColor=#FFB570;fillColor=#e1d5e7;strokeColor=#9673a6;exitX=0;exitY=0.5;exitDx=0;exitDy=0;" parent="1" source="VGW8Ie6xMGFFhk2Ik6Qo-205" edge="1"><mxGeometry relative="1" as="geometry"><mxPoint x="726" y="-60" as="sourcePoint"/><mxPoint x="211" y="240" as="targetPoint"/></mxGeometry></mxCell><mxCell id="VGW8Ie6xMGFFhk2Ik6Qo-208" style="edgeStyle=orthogonalEdgeStyle;rounded=1;orthogonalLoop=1;jettySize=auto;html=1;dashed=1;endArrow=none;endFill=0;fontSize=12;fontColor=#FFB570;fillColor=#e1d5e7;strokeColor=#9673a6;exitX=0;exitY=0.5;exitDx=0;exitDy=0;entryX=1;entryY=0.5;entryDx=0;entryDy=0;" parent="1" source="VGW8Ie6xMGFFhk2Ik6Qo-206" target="VGW8Ie6xMGFFhk2Ik6Qo-182" edge="1"><mxGeometry relative="1" as="geometry"><mxPoint x="271.01" y="290" as="sourcePoint"/><mxPoint x="221.01" y="290" as="targetPoint"/></mxGeometry></mxCell><mxCell id="VGW8Ie6xMGFFhk2Ik6Qo-212" value="image" style="ellipse;whiteSpace=wrap;html=1;aspect=fixed;fontSize=12;labelPosition=center;verticalLabelPosition=top;align=center;verticalAlign=bottom;fillColor=#ffe6cc;strokeColor=#d79b00;fontColor=#FFB570;" parent="1" vertex="1"><mxGeometry x="351.00999999999993" y="190" width="20" height="20" as="geometry"/></mxCell><mxCell id="VGW8Ie6xMGFFhk2Ik6Qo-215" style="edgeStyle=orthogonalEdgeStyle;rounded=1;orthogonalLoop=1;jettySize=auto;html=1;dashed=1;endArrow=none;endFill=0;fontSize=12;fontColor=#FFB570;fillColor=#ffe6cc;strokeColor=#d79b00;exitX=1;exitY=0.5;exitDx=0;exitDy=0;entryX=0;entryY=0.5;entryDx=0;entryDy=0;" parent="1" source="VGW8Ie6xMGFFhk2Ik6Qo-205" target="VGW8Ie6xMGFFhk2Ik6Qo-216" edge="1"><mxGeometry relative="1" as="geometry"><mxPoint x="465.6700000000001" y="-160" as="sourcePoint"/><mxPoint x="501.01" y="-160" as="targetPoint"/></mxGeometry></mxCell><mxCell id="VGW8Ie6xMGFFhk2Ik6Qo-216" value="image" style="ellipse;whiteSpace=wrap;html=1;aspect=fixed;fontSize=12;labelPosition=center;verticalLabelPosition=top;align=center;verticalAlign=bottom;fillColor=#ffe6cc;strokeColor=#d79b00;fontColor=#FFB570;" parent="1" vertex="1"><mxGeometry x="351.00999999999993" y="230" width="20" height="20" as="geometry"/></mxCell><mxCell id="VGW8Ie6xMGFFhk2Ik6Qo-217" value="image" style="ellipse;whiteSpace=wrap;html=1;aspect=fixed;fontSize=12;labelPosition=center;verticalLabelPosition=top;align=center;verticalAlign=bottom;fillColor=#ffe6cc;strokeColor=#d79b00;fontColor=#FFB570;" parent="1" vertex="1"><mxGeometry x="351.00999999999993" y="270" width="20" height="20" as="geometry"/></mxCell><mxCell id="VGW8Ie6xMGFFhk2Ik6Qo-222" value="video" style="ellipse;whiteSpace=wrap;html=1;aspect=fixed;fontSize=12;labelPosition=center;verticalLabelPosition=top;align=center;verticalAlign=bottom;fillColor=#d5e8d4;strokeColor=#82b366;fontColor=#006633;" parent="1" vertex="1"><mxGeometry x="351.00999999999993" y="310" width="20" height="20" as="geometry"/></mxCell><mxCell id="VGW8Ie6xMGFFhk2Ik6Qo-223" style="edgeStyle=orthogonalEdgeStyle;rounded=1;orthogonalLoop=1;jettySize=auto;html=1;dashed=1;endArrow=none;endFill=0;fillColor=#d5e8d4;strokeColor=#82b366;exitX=1;exitY=0.5;exitDx=0;exitDy=0;" parent="1" source="VGW8Ie6xMGFFhk2Ik6Qo-206" edge="1"><mxGeometry relative="1" as="geometry"><mxPoint x="351.01" y="320" as="targetPoint"/><mxPoint x="781.01" y="-130" as="sourcePoint"/></mxGeometry></mxCell><mxCell id="VGW8Ie6xMGFFhk2Ik6Qo-224" value="folder" style="ellipse;whiteSpace=wrap;html=1;aspect=fixed;fillColor=#f8cecc;strokeColor=#b85450;fontStyle=0;labelPosition=center;verticalLabelPosition=top;align=center;verticalAlign=bottom;fontColor=#FF9999;" parent="1" vertex="1"><mxGeometry x="350" y="110" width="20" height="20" as="geometry"/></mxCell><mxCell id="VGW8Ie6xMGFFhk2Ik6Qo-225" value="" style="endArrow=none;dashed=1;html=1;fillColor=#f8cecc;strokeColor=#b85450;entryX=1;entryY=0.5;entryDx=0;entryDy=0;endFill=0;exitX=0;exitY=0.5;exitDx=0;exitDy=0;" parent="1" source="VGW8Ie6xMGFFhk2Ik6Qo-224" target="VGW8Ie6xMGFFhk2Ik6Qo-197" edge="1"><mxGeometry width="50" height="50" relative="1" as="geometry"><mxPoint x="279.970000000013" y="130" as="sourcePoint"/><mxPoint x="219.97000000000003" y="130" as="targetPoint"/><Array as="points"/></mxGeometry></mxCell><mxCell id="VGW8Ie6xMGFFhk2Ik6Qo-229" value="file" style="ellipse;whiteSpace=wrap;html=1;aspect=fixed;fontStyle=0;labelPosition=center;verticalLabelPosition=top;align=center;verticalAlign=bottom;fillColor=#f5f5f5;fontColor=#333333;strokeColor=#666666;" parent="1" vertex="1"><mxGeometry x="350" y="70" width="20" height="20" as="geometry"/></mxCell><mxCell id="VGW8Ie6xMGFFhk2Ik6Qo-230" style="edgeStyle=orthogonalEdgeStyle;rounded=1;orthogonalLoop=1;jettySize=auto;html=1;dashed=1;endArrow=none;endFill=0;exitX=0;exitY=0.5;exitDx=0;exitDy=0;entryX=1;entryY=0.5;entryDx=0;entryDy=0;" parent="1" source="VGW8Ie6xMGFFhk2Ik6Qo-229" target="VGW8Ie6xMGFFhk2Ik6Qo-200" edge="1"><mxGeometry relative="1" as="geometry"><mxPoint x="755" y="-50" as="sourcePoint"/><mxPoint x="830" y="-50" as="targetPoint"/></mxGeometry></mxCell><mxCell id="VGW8Ie6xMGFFhk2Ik6Qo-231" value="folder" style="ellipse;whiteSpace=wrap;html=1;aspect=fixed;fillColor=#f8cecc;strokeColor=#b85450;fontStyle=0;labelPosition=center;verticalLabelPosition=top;align=center;verticalAlign=bottom;fontColor=#FF9999;" parent="1" vertex="1"><mxGeometry x="350" y="30" width="20" height="20" as="geometry"/></mxCell><mxCell id="VGW8Ie6xMGFFhk2Ik6Qo-232" value="" style="endArrow=none;dashed=1;html=1;fillColor=#f8cecc;strokeColor=#b85450;entryX=1;entryY=0.5;entryDx=0;entryDy=0;endFill=0;exitX=0;exitY=0.5;exitDx=0;exitDy=0;" parent="1" source="VGW8Ie6xMGFFhk2Ik6Qo-231" target="VGW8Ie6xMGFFhk2Ik6Qo-200" edge="1"><mxGeometry width="50" height="50" relative="1" as="geometry"><mxPoint x="359.9999999999998" y="130" as="sourcePoint"/><mxPoint x="299.9699999999875" y="130" as="targetPoint"/><Array as="points"><mxPoint x="300" y="40"/><mxPoint x="300" y="80"/></Array></mxGeometry></mxCell><mxCell id="VGW8Ie6xMGFFhk2Ik6Qo-233" style="edgeStyle=orthogonalEdgeStyle;rounded=1;orthogonalLoop=1;jettySize=auto;html=1;dashed=1;endArrow=none;endFill=0;fontSize=12;fontColor=#FFB570;fillColor=#ffe6cc;strokeColor=#d79b00;exitX=1;exitY=0.5;exitDx=0;exitDy=0;entryX=0;entryY=0.5;entryDx=0;entryDy=0;" parent="1" source="VGW8Ie6xMGFFhk2Ik6Qo-205" target="VGW8Ie6xMGFFhk2Ik6Qo-212" edge="1"><mxGeometry relative="1" as="geometry"><mxPoint x="300.96999999998707" y="250" as="sourcePoint"/><mxPoint x="361.00999999999976" y="250" as="targetPoint"/><Array as="points"><mxPoint x="301.01" y="240"/><mxPoint x="301.01" y="200"/></Array></mxGeometry></mxCell><mxCell id="VGW8Ie6xMGFFhk2Ik6Qo-235" style="edgeStyle=orthogonalEdgeStyle;rounded=1;orthogonalLoop=1;jettySize=auto;html=1;dashed=1;endArrow=none;endFill=0;fontSize=12;fontColor=#FFB570;fillColor=#ffe6cc;strokeColor=#d79b00;exitX=1;exitY=0.5;exitDx=0;exitDy=0;entryX=0;entryY=0.5;entryDx=0;entryDy=0;" parent="1" source="VGW8Ie6xMGFFhk2Ik6Qo-205" target="VGW8Ie6xMGFFhk2Ik6Qo-217" edge="1"><mxGeometry relative="1" as="geometry"><mxPoint x="300.96999999998707" y="250" as="sourcePoint"/><mxPoint x="361.00999999999976" y="250" as="targetPoint"/><Array as="points"><mxPoint x="301.01" y="240"/><mxPoint x="301.01" y="280"/></Array></mxGeometry></mxCell><mxCell id="7" style="edgeStyle=orthogonalEdgeStyle;rounded=0;orthogonalLoop=1;jettySize=auto;html=1;exitX=0.5;exitY=0;exitDx=0;exitDy=0;fontColor=#336600;strokeColor=#336600;" edge="1" parent="1" source="VGW8Ie6xMGFFhk2Ik6Qo-237"><mxGeometry relative="1" as="geometry"><mxPoint x="440" y="160" as="targetPoint"/></mxGeometry></mxCell><mxCell id="VGW8Ie6xMGFFhk2Ik6Qo-237" value="file" style="ellipse;whiteSpace=wrap;html=1;aspect=fixed;fontStyle=0;labelPosition=center;verticalLabelPosition=top;align=center;verticalAlign=bottom;fillColor=#f5f5f5;fontColor=#333333;strokeColor=#666666;" parent="1" vertex="1"><mxGeometry x="430.01" y="150" width="20" height="20" as="geometry"/></mxCell><mxCell id="VGW8Ie6xMGFFhk2Ik6Qo-238" style="edgeStyle=orthogonalEdgeStyle;rounded=1;orthogonalLoop=1;jettySize=auto;html=1;dashed=1;endArrow=none;endFill=0;entryX=1;entryY=0.5;entryDx=0;entryDy=0;exitX=0;exitY=0.5;exitDx=0;exitDy=0;" parent="1" source="VGW8Ie6xMGFFhk2Ik6Qo-237" target="VGW8Ie6xMGFFhk2Ik6Qo-224" edge="1"><mxGeometry relative="1" as="geometry"><mxPoint x="410" y="80" as="sourcePoint"/><mxPoint x="299.9699999999875" y="90" as="targetPoint"/><Array as="points"><mxPoint x="380" y="160"/><mxPoint x="380" y="120"/></Array></mxGeometry></mxCell><mxCell id="VGW8Ie6xMGFFhk2Ik6Qo-240" value="image" style="ellipse;whiteSpace=wrap;html=1;aspect=fixed;fontSize=12;labelPosition=center;verticalLabelPosition=top;align=center;verticalAlign=bottom;fillColor=#ffe6cc;strokeColor=#d79b00;fontColor=#FFB570;" parent="1" vertex="1"><mxGeometry x="429.99999999999994" y="110" width="20" height="20" as="geometry"/></mxCell><mxCell id="VGW8Ie6xMGFFhk2Ik6Qo-241" style="edgeStyle=orthogonalEdgeStyle;rounded=1;orthogonalLoop=1;jettySize=auto;html=1;dashed=1;endArrow=none;endFill=0;fontSize=12;fontColor=#FFB570;fillColor=#ffe6cc;strokeColor=#d79b00;exitX=1;exitY=0.5;exitDx=0;exitDy=0;entryX=0;entryY=0.5;entryDx=0;entryDy=0;" parent="1" source="VGW8Ie6xMGFFhk2Ik6Qo-224" target="VGW8Ie6xMGFFhk2Ik6Qo-240" edge="1"><mxGeometry relative="1" as="geometry"><mxPoint x="299.9599999999871" y="210" as="sourcePoint"/><mxPoint x="359.9999999999998" y="210" as="targetPoint"/></mxGeometry></mxCell><mxCell id="VGW8Ie6xMGFFhk2Ik6Qo-244" value="audio" style="ellipse;whiteSpace=wrap;html=1;aspect=fixed;fontSize=12;labelPosition=center;verticalLabelPosition=top;align=center;verticalAlign=bottom;fillColor=#B0E3E6;strokeColor=#0e8088;fontColor=#A0CED1;" parent="1" vertex="1"><mxGeometry x="429.99999999999994" y="70" width="20" height="20" as="geometry"/></mxCell><mxCell id="VGW8Ie6xMGFFhk2Ik6Qo-245" style="edgeStyle=orthogonalEdgeStyle;rounded=1;orthogonalLoop=1;jettySize=auto;html=1;dashed=1;endArrow=none;endFill=0;exitX=0;exitY=0.5;exitDx=0;exitDy=0;entryX=1;entryY=0.5;entryDx=0;entryDy=0;fillColor=#b1ddf0;strokeColor=#10739e;" parent="1" source="VGW8Ie6xMGFFhk2Ik6Qo-244" target="VGW8Ie6xMGFFhk2Ik6Qo-224" edge="1"><mxGeometry relative="1" as="geometry"><mxPoint x="359.9999999999998" y="90" as="sourcePoint"/><mxPoint x="299.9699999999875" y="90" as="targetPoint"/><Array as="points"><mxPoint x="380" y="80"/><mxPoint x="380" y="120"/></Array></mxGeometry></mxCell><mxCell id="VGW8Ie6xMGFFhk2Ik6Qo-246" value="pdf" style="ellipse;whiteSpace=wrap;html=1;aspect=fixed;fillColor=#BAC8D3;strokeColor=#29506E;fontStyle=0;labelPosition=center;verticalLabelPosition=top;align=center;verticalAlign=bottom;fontColor=#A4B0BA;" parent="1" vertex="1"><mxGeometry x="430" y="30" width="20" height="20" as="geometry"/></mxCell><mxCell id="VGW8Ie6xMGFFhk2Ik6Qo-247" style="edgeStyle=orthogonalEdgeStyle;rounded=1;orthogonalLoop=1;jettySize=auto;html=1;dashed=1;endArrow=none;endFill=0;exitX=0;exitY=0.5;exitDx=0;exitDy=0;fontColor=#A4B0BA;" parent="1" source="VGW8Ie6xMGFFhk2Ik6Qo-246" edge="1"><mxGeometry relative="1" as="geometry"><mxPoint x="359.9999999999998" y="90" as="sourcePoint"/><mxPoint x="370" y="40" as="targetPoint"/></mxGeometry></mxCell><mxCell id="yOfq6P5HBapOTMg7Mklu-1" value="root" style="ellipse;whiteSpace=wrap;html=1;aspect=fixed;fillColor=#e1d5e7;strokeColor=#9673a6;fontStyle=0;labelPosition=center;verticalLabelPosition=top;align=center;verticalAlign=bottom;fontColor=#A680B8;" parent="1" vertex="1"><mxGeometry x="270.98" y="350" width="20" height="20" as="geometry"/></mxCell><mxCell id="yOfq6P5HBapOTMg7Mklu-4" value="pdf" style="ellipse;whiteSpace=wrap;html=1;aspect=fixed;fillColor=#BAC8D3;strokeColor=#29506E;fontStyle=0;labelPosition=center;verticalLabelPosition=top;align=center;verticalAlign=bottom;fontColor=#A4B0BA;" parent="1" vertex="1"><mxGeometry x="351.01" y="350" width="20" height="20" as="geometry"/></mxCell><mxCell id="yOfq6P5HBapOTMg7Mklu-5" style="edgeStyle=orthogonalEdgeStyle;rounded=1;orthogonalLoop=1;jettySize=auto;html=1;dashed=1;endArrow=none;endFill=0;exitX=0;exitY=0.5;exitDx=0;exitDy=0;fontColor=#A4B0BA;entryX=1;entryY=0.5;entryDx=0;entryDy=0;" parent="1" source="yOfq6P5HBapOTMg7Mklu-4" target="yOfq6P5HBapOTMg7Mklu-1" edge="1"><mxGeometry relative="1" as="geometry"><mxPoint x="281.00999999999976" y="410" as="sourcePoint"/><mxPoint x="311.01" y="390" as="targetPoint"/></mxGeometry></mxCell><mxCell id="3" value="range" style="ellipse;whiteSpace=wrap;html=1;aspect=fixed;fillColor=#9AC7BF;strokeColor=#336600;fontStyle=0;labelPosition=center;verticalLabelPosition=top;align=center;verticalAlign=bottom;fontColor=#336600;" vertex="1" parent="1"><mxGeometry x="430.01" y="230" width="20" height="20" as="geometry"/></mxCell><mxCell id="11" style="edgeStyle=orthogonalEdgeStyle;rounded=1;orthogonalLoop=1;jettySize=auto;html=1;dashed=1;endArrow=none;endFill=0;fontSize=12;fontColor=#336600;fillColor=#ffe6cc;strokeColor=#336600;exitX=1;exitY=0.5;exitDx=0;exitDy=0;" edge="1" parent="1"><mxGeometry relative="1" as="geometry"><mxPoint x="371.01" y="240" as="sourcePoint"/><mxPoint x="430" y="240" as="targetPoint"/><Array as="points"/></mxGeometry></mxCell><mxCell id="15" style="edgeStyle=orthogonalEdgeStyle;rounded=1;orthogonalLoop=1;jettySize=auto;html=1;dashed=1;endArrow=none;endFill=0;exitX=0;exitY=0.5;exitDx=0;exitDy=0;entryX=1;entryY=0.5;entryDx=0;entryDy=0;fillColor=#b1ddf0;strokeColor=#336600;" edge="1" parent="1"><mxGeometry relative="1" as="geometry"><mxPoint x="431.01" y="240" as="sourcePoint"/><mxPoint x="371.01" y="280" as="targetPoint"/><Array as="points"><mxPoint x="420" y="240"/><mxPoint x="420" y="280"/></Array></mxGeometry></mxCell><mxCell id="16" value="range" style="ellipse;whiteSpace=wrap;html=1;aspect=fixed;fillColor=#9AC7BF;strokeColor=#336600;fontStyle=0;labelPosition=center;verticalLabelPosition=top;align=center;verticalAlign=bottom;fontColor=#336600;" vertex="1" parent="1"><mxGeometry x="430.01" y="190" width="20" height="20" as="geometry"/></mxCell><mxCell id="17" style="edgeStyle=orthogonalEdgeStyle;rounded=1;orthogonalLoop=1;jettySize=auto;html=1;dashed=1;endArrow=none;endFill=0;fontSize=12;fontColor=#336600;fillColor=#ffe6cc;strokeColor=#336600;exitX=1;exitY=0.5;exitDx=0;exitDy=0;" edge="1" parent="1" source="VGW8Ie6xMGFFhk2Ik6Qo-212"><mxGeometry relative="1" as="geometry"><mxPoint x="381.01" y="250" as="sourcePoint"/><mxPoint x="430" y="200" as="targetPoint"/><Array as="points"/></mxGeometry></mxCell><mxCell id="18" value="range" style="ellipse;whiteSpace=wrap;html=1;aspect=fixed;fillColor=#9AC7BF;strokeColor=#336600;fontStyle=0;labelPosition=center;verticalLabelPosition=top;align=center;verticalAlign=bottom;fontColor=#336600;" vertex="1" parent="1"><mxGeometry x="510" y="230" width="20" height="20" as="geometry"/></mxCell><mxCell id="19" style="edgeStyle=orthogonalEdgeStyle;rounded=1;orthogonalLoop=1;jettySize=auto;html=1;dashed=1;endArrow=none;endFill=0;fontSize=12;fontColor=#336600;fillColor=#ffe6cc;strokeColor=#336600;exitX=1;exitY=0.5;exitDx=0;exitDy=0;" edge="1" parent="1"><mxGeometry relative="1" as="geometry"><mxPoint x="451.0099999999999" y="239.76" as="sourcePoint"/><mxPoint x="510" y="239.76" as="targetPoint"/><Array as="points"/></mxGeometry></mxCell><mxCell id="20" style="edgeStyle=orthogonalEdgeStyle;rounded=1;orthogonalLoop=1;jettySize=auto;html=1;dashed=1;endArrow=none;endFill=0;exitX=0;exitY=0.5;exitDx=0;exitDy=0;entryX=1;entryY=0.5;entryDx=0;entryDy=0;fillColor=#b1ddf0;strokeColor=#336600;" edge="1" parent="1" target="16"><mxGeometry relative="1" as="geometry"><mxPoint x="510.01" y="240" as="sourcePoint"/><mxPoint x="450.01" y="280" as="targetPoint"/><Array as="points"><mxPoint x="500" y="240"/><mxPoint x="500" y="200"/></Array></mxGeometry></mxCell></root></mxGraphModel></diagram></mxfile>